<?xml version="1.0" encoding="utf-8"?>
<!-- Generator: Adobe Illustrator 27.5.0, SVG Export Plug-In . SVG Version: 6.00 Build 0)  -->
<svg version="1.1" xmlns="http://www.w3.org/2000/svg" xmlns:xlink="http://www.w3.org/1999/xlink" x="0px" y="0px"
	 viewBox="0 0 750 500" style="enable-background:new 0 0 750 500;" xml:space="preserve">
<g id="BACKGROUND">
	<rect style="fill:#FFFFFF;" width="750" height="500"/>
</g>
<g id="OBJECTS">
	<g>
		<defs>
			<rect id="SVGID_1_" width="750" height="500"/>
		</defs>
		<clipPath id="SVGID_00000082353041953386529120000017149158079500353970_">
			<use xlink:href="#SVGID_1_"  style="overflow:visible;"/>
		</clipPath>
		<g style="clip-path:url(#SVGID_00000082353041953386529120000017149158079500353970_);">
			<g>
				
					<ellipse transform="matrix(0.7071 -0.7071 0.7071 0.7071 -143.5098 666.8436)" style="fill:none;stroke:#4E61FE;stroke-width:2;stroke-miterlimit:10;" cx="733.197" cy="506.653" rx="97.275" ry="97.275"/>
				
					<ellipse transform="matrix(0.7071 -0.7071 0.7071 0.7071 -143.5098 666.8436)" style="fill:none;stroke:#4E61FE;stroke-width:2;stroke-miterlimit:10;" cx="733.197" cy="506.653" rx="85.146" ry="85.146"/>
				<circle style="fill:none;stroke:#4E61FE;stroke-width:2;stroke-miterlimit:10;" cx="733.197" cy="506.653" r="73.688"/>
				
					<ellipse transform="matrix(0.7071 -0.7071 0.7071 0.7071 -143.5098 666.8436)" style="fill:none;stroke:#4E61FE;stroke-width:2;stroke-miterlimit:10;" cx="733.197" cy="506.653" rx="61.309" ry="61.309"/>
				<circle style="fill:none;stroke:#4E61FE;stroke-width:2;stroke-miterlimit:10;" cx="733.197" cy="506.653" r="48.093"/>
				<circle style="fill:none;stroke:#4E61FE;stroke-width:2;stroke-miterlimit:10;" cx="733.197" cy="506.653" r="34.378"/>
				
					<ellipse transform="matrix(0.9218 -0.3876 0.3876 0.9218 -139.0579 323.7682)" style="fill:none;stroke:#4E61FE;stroke-width:2;stroke-miterlimit:10;" cx="733.197" cy="506.653" rx="20.757" ry="20.757"/>
			</g>
			<path style="fill:#9494FF;" d="M564.239,80.968L564.239,80.968c-21.569-21.569-21.569-56.539,0-78.108L744.039-176.94
				c21.569-21.569,56.539-21.569,78.108,0l0,0c21.569,21.569,21.569,56.539,0,78.108L642.347,80.968
				C620.778,102.537,585.808,102.537,564.239,80.968z"/>
			<path style="fill:#9494FF;" d="M614.652,266.021L614.652,266.021c-1.756-1.756-3.785-3.074-5.951-3.952
				c2.635,6.497,1.318,14.223-3.952,19.493l-58.569,58.569c-5.27,5.27-12.995,6.587-19.493,3.952
				c0.878,2.165,2.195,4.194,3.952,5.951l0,0c7.026,7.026,18.417,7.026,25.443,0l58.569-58.569
				C621.678,284.438,621.678,273.047,614.652,266.021z"/>
			<path style="fill:#333437;" d="M564.647,306.505l58.569-58.569c5.27-5.27,12.995-6.587,19.493-3.952
				c-0.878-2.165-2.195-4.195-3.952-5.951l0,0c-7.026-7.026-18.417-7.026-25.443,0l-58.569,58.569
				c-7.026,7.026-7.026,18.417,0,25.443l0,0c1.756,1.756,3.785,3.073,5.951,3.952C558.06,319.5,559.377,311.774,564.647,306.505z"/>
			<path style="fill:#4E61FE;" d="M706.096,181.83L706.096,181.83c-1.756-1.756-3.785-3.074-5.951-3.952
				c2.635,6.497,1.318,14.223-3.952,19.493l-58.569,58.569c-5.27,5.27-12.995,6.587-19.493,3.952
				c0.878,2.165,2.195,4.194,3.952,5.951v0c7.026,7.026,18.417,7.026,25.443,0l58.569-58.569
				C713.122,200.247,713.122,188.856,706.096,181.83z"/>
			<path style="fill:#9494FF;" d="M656.09,222.314l58.569-58.569c5.27-5.27,12.995-6.587,19.493-3.952
				c-0.878-2.165-2.195-4.194-3.952-5.951l0,0c-7.026-7.026-18.417-7.026-25.443,0l-58.569,58.569
				c-7.026,7.026-7.026,18.417,0,25.443l0,0c1.756,1.756,3.785,3.074,5.951,3.952C649.503,235.309,650.82,227.583,656.09,222.314z"
				/>
			<path style="fill:#9494FF;" d="M797.539,97.639L797.539,97.639c-1.756-1.756-3.785-3.074-5.951-3.952
				c2.635,6.497,1.318,14.223-3.952,19.493l-58.569,58.569c-5.27,5.27-12.995,6.587-19.493,3.952
				c0.878,2.165,2.196,4.195,3.952,5.951l0,0c7.026,7.026,18.417,7.026,25.443,0l58.569-58.569
				C804.565,116.056,804.565,104.665,797.539,97.639z"/>
			<path style="fill:#9494FF;" d="M747.534,138.123l58.569-58.569c5.27-5.27,12.995-6.587,19.493-3.952
				c-0.878-2.165-2.195-4.194-3.952-5.951h0c-7.026-7.026-18.417-7.026-25.443,0l-58.569,58.569c-7.026,7.026-7.026,18.417,0,25.443
				h0c1.756,1.756,3.785,3.073,5.951,3.952C740.947,151.118,742.264,143.392,747.534,138.123z"/>
			<path style="fill:#333437;" d="M54.874,286.685L54.874,286.685c-1.756-1.756-3.785-3.073-5.951-3.952
				c2.635,6.497,1.318,14.223-3.952,19.492l-58.569,58.569c-5.27,5.27-12.995,6.587-19.493,3.952
				c0.878,2.165,2.195,4.194,3.952,5.951l0,0c7.026,7.026,18.417,7.026,25.443,0l58.569-58.569
				C61.9,305.103,61.9,293.711,54.874,286.685z"/>
			<path style="fill:#4E61FE;" d="M4.869,327.169L63.438,268.6c5.27-5.27,12.995-6.587,19.493-3.952
				c-0.878-2.165-2.195-4.195-3.952-5.951v0c-7.026-7.026-18.417-7.026-25.443,0l-58.569,58.569c-7.026,7.026-7.026,18.417,0,25.443
				l0,0c1.756,1.756,3.785,3.074,5.951,3.952C-1.718,340.164-0.401,332.439,4.869,327.169z"/>
			<path style="fill:#4E61FE;" d="M146.318,202.495L146.318,202.495c-1.756-1.756-3.785-3.074-5.951-3.952
				c2.635,6.497,1.318,14.223-3.952,19.492l-58.569,58.569c-5.27,5.27-12.995,6.587-19.493,3.952
				c0.878,2.165,2.195,4.194,3.952,5.951l0,0c7.026,7.026,18.417,7.026,25.443,0l58.569-58.569
				C153.344,220.912,153.344,209.52,146.318,202.495z"/>
			<path style="fill:#4E61FE;" d="M791.14,283.763L791.14,283.763c-1.927-1.927-4.152-3.372-6.528-4.335
				c2.891,7.128,1.446,15.602-4.335,21.383l-64.249,64.249c-5.781,5.781-14.256,7.226-21.383,4.335
				c0.964,2.375,2.408,4.601,4.335,6.528l0,0c7.707,7.707,20.204,7.707,27.911,0l64.25-64.25
				C798.847,303.967,798.847,291.471,791.14,283.763z"/>
			<path style="fill:#333437;" d="M96.312,242.978l58.569-58.569c5.27-5.27,12.995-6.587,19.493-3.952
				c-0.878-2.165-2.195-4.195-3.952-5.951l0,0c-7.026-7.026-18.417-7.026-25.443,0L86.41,233.076
				c-7.026,7.026-7.026,18.417,0,25.443l0,0c1.756,1.756,3.785,3.073,5.951,3.952C89.725,255.973,91.042,248.248,96.312,242.978z"/>
			
				<rect x="67.482" y="-196.647" transform="matrix(0.7071 0.7071 -0.7071 0.7071 17.4395 -70.6617)" style="fill:#4E61FE;" width="53.068" height="364.736"/>
			
				<rect x="50.699" y="-196.647" transform="matrix(0.7071 0.7071 -0.7071 0.7071 12.5239 -58.7945)" style="fill:none;stroke:#333437;stroke-linecap:round;stroke-linejoin:round;stroke-miterlimit:10;" width="53.068" height="364.736"/>
			<path style="fill:#9494FF;" d="M643.126,360.732L643.126,360.732c11.25,11.25,11.25,29.491,0,40.741L428.898,615.701
				c18.041,4.295,37.822-0.588,51.897-14.664l179.799-179.799c21.569-21.569,21.569-56.539,0-78.108l0,0"/>
			<path style="fill:#333437;" d="M660.653,343.189L660.653,343.189c-11.25-11.25-11.25-29.491,0-40.741L874.881,88.22
				c-18.041-4.295-37.822,0.588-51.897,14.664L643.184,282.683c-21.569,21.569-21.569,56.539,0,78.108l0,0"/>
			<path style="fill:#9494FF;" d="M25.208,196.963L25.208,196.963c11.25,11.25,11.25,29.491,0,40.741L-189.02,451.932
				c18.041,4.295,37.822-0.588,51.897-14.664L42.677,257.469c21.569-21.569,21.569-56.539,0-78.108v0"/>
			<path style="fill:#333437;" d="M42.735,179.42L42.735,179.42c-11.25-11.25-11.25-29.491,0-40.741L256.963-75.549
				c-18.041-4.295-37.822,0.588-51.897,14.664L25.266,118.914c-21.569,21.569-21.569,56.539,0,78.108v0"/>
			<path style="fill:#333437;" d="M137.9,151.342l-36.997-36.997c-3.804-3.804-9.97-3.804-13.774,0l-36.997,36.997
				c-3.804,3.804-3.804,9.97,0,13.774l36.997,36.997c3.804,3.804,9.97,3.804,13.774,0l36.997-36.997
				C141.703,161.312,141.703,155.145,137.9,151.342z M94.046,181.488c-12.456,0-22.554-10.098-22.554-22.554
				c0-12.456,10.098-22.554,22.554-22.554s22.554,10.098,22.554,22.554C116.599,171.391,106.502,181.488,94.046,181.488z"/>
			<circle style="fill:none;stroke:#9494FF;stroke-width:3;stroke-miterlimit:10;" cx="93.809" cy="159.497" r="11.452"/>
			<path style="fill:#333437;" d="M765.836,62.632l-36.997-36.997c-3.803-3.804-9.97-3.804-13.774,0l-36.997,36.997
				c-3.804,3.804-3.804,9.97,0,13.774l36.997,36.997c3.804,3.803,9.97,3.803,13.774,0l36.997-36.997
				C769.639,72.603,769.639,66.436,765.836,62.632z M721.982,92.78c-12.456,0-22.554-10.098-22.554-22.554
				s10.098-22.553,22.554-22.553s22.554,10.097,22.554,22.553S734.438,92.78,721.982,92.78z"/>
			<circle style="fill:none;stroke:#9390E2;stroke-width:3;stroke-miterlimit:10;" cx="721.745" cy="70.788" r="11.451"/>
			<path style="fill:#4E61FE;" d="M116.883,82.505c0.675,11.63,5.446,23.066,14.332,31.952c19.233,19.233,50.416,19.233,69.649,0
				c19.233-19.233,19.233-50.416,0-69.649c-8.886-8.885-20.322-13.656-31.952-14.332v52.029H116.883z"/>
			<path style="fill:#4E61FE;" d="M220.533,423.198c-3.048,0.177-6.045,1.427-8.374,3.756c-5.04,5.04-5.04,13.212,0,18.253
				c5.04,5.04,13.213,5.04,18.253,0c2.329-2.329,3.579-5.326,3.756-8.374h-13.635L220.533,423.198z"/>
			<path style="fill:#4E61FE;" d="M202.125,441.606c-3.048,0.177-6.045,1.427-8.374,3.756c-5.04,5.04-5.04,13.212,0,18.253
				c5.04,5.04,13.212,5.04,18.253,0c2.329-2.329,3.579-5.326,3.756-8.374h-13.635V441.606z"/>
			<path style="fill:#4E61FE;" d="M183.717,460.015c-3.048,0.177-6.045,1.427-8.374,3.756c-5.04,5.04-5.04,13.212,0,18.253
				c5.04,5.04,13.212,5.04,18.253,0c2.329-2.329,3.579-5.326,3.756-8.374h-13.635V460.015z"/>
			<path style="fill:#4E61FE;" d="M165.308,478.423c-3.048,0.177-6.045,1.427-8.374,3.756c-5.04,5.04-5.04,13.212,0,18.253
				c5.04,5.04,13.213,5.04,18.253,0c2.329-2.329,3.579-5.326,3.756-8.374h-13.635V478.423z"/>
			<path style="fill:#4E61FE;" d="M146.9,496.832c-3.048,0.177-6.045,1.427-8.374,3.756c-5.04,5.04-5.04,13.212,0,18.253
				c5.04,5.04,13.212,5.04,18.253,0c2.329-2.329,3.579-5.326,3.756-8.374H146.9V496.832z"/>
			<path style="fill:#9494FF;" d="M697.521,290.302c-6.77,0.393-13.427,3.17-18.6,8.343c-11.196,11.196-11.196,29.348,0,40.543
				c11.196,11.196,29.348,11.196,40.543,0c5.172-5.172,7.95-11.83,8.343-18.6h-30.286V290.302z"/>
			<g>
				<rect x="168.593" y="73.08" style="fill:#333437;" width="59.157" height="2.565"/>
				<rect x="168.593" y="80.581" style="fill:#333437;" width="59.157" height="2.565"/>
				<rect x="168.593" y="88.082" style="fill:#333437;" width="59.157" height="2.565"/>
				<rect x="168.593" y="95.584" style="fill:#333437;" width="59.157" height="2.565"/>
				<rect x="168.593" y="103.085" style="fill:#333437;" width="59.157" height="2.565"/>
				<rect x="168.593" y="110.587" style="fill:#333437;" width="59.157" height="2.565"/>
			</g>
			<g>
				
					<rect x="570.214" y="409.012" transform="matrix(0.7071 -0.7071 0.7071 0.7071 -112.8671 548.6249)" style="fill:#333437;" width="71.203" height="3.087"/>
				
					<rect x="576.598" y="415.396" transform="matrix(0.7071 -0.7071 0.7071 0.7071 -115.5114 555.0102)" style="fill:#333437;" width="71.203" height="3.087"/>
				
					<rect x="582.982" y="421.78" transform="matrix(0.7071 -0.7071 0.7071 0.7071 -118.1559 561.3945)" style="fill:#333437;" width="71.203" height="3.087"/>
				
					<rect x="589.367" y="428.165" transform="matrix(0.7071 -0.7071 0.7071 0.7071 -120.8005 567.7781)" style="fill:#333437;" width="71.203" height="3.087"/>
				
					<rect x="595.751" y="434.549" transform="matrix(0.7071 -0.7071 0.7071 0.7071 -123.4452 574.1617)" style="fill:#333437;" width="71.203" height="3.087"/>
				
					<rect x="602.136" y="440.934" transform="matrix(0.7071 -0.7071 0.7071 0.7071 -126.0897 580.5461)" style="fill:#333437;" width="71.203" height="3.087"/>
			</g>
			<g>
				
					<rect x="483.435" y="-11.826" transform="matrix(0.7071 -0.7071 0.7071 0.7071 189.9096 437.9171)" style="fill:#333437;" width="280.265" height="3.087"/>
				
					<rect x="489.819" y="-5.442" transform="matrix(0.7071 -0.7071 0.7071 0.7071 187.2651 444.3015)" style="fill:#333437;" width="280.265" height="3.087"/>
				
					<rect x="496.204" y="0.943" transform="matrix(0.7071 -0.7071 0.7071 0.7071 184.6206 450.6859)" style="fill:#333437;" width="280.265" height="3.087"/>
				
					<rect x="502.588" y="7.327" transform="matrix(0.7071 -0.7071 0.7071 0.7071 181.9762 457.0703)" style="fill:#333437;" width="280.265" height="3.087"/>
				
					<rect x="508.973" y="13.711" transform="matrix(0.7071 -0.7071 0.7071 0.7071 179.3317 463.4548)" style="fill:#333437;" width="280.265" height="3.087"/>
				
					<rect x="515.357" y="20.096" transform="matrix(0.7071 -0.7071 0.7071 0.7071 176.6872 469.8391)" style="fill:#333437;" width="280.265" height="3.087"/>
			</g>
			<circle style="fill:#333437;" cx="540.901" cy="104.094" r="24.306"/>
			<g>
				
					<rect x="324.174" y="557.525" transform="matrix(-0.7071 0.7071 -0.7071 -0.7071 1187.9427 626.0753)" style="fill:#333437;" width="280.265" height="3.087"/>
				
					<rect x="317.79" y="551.141" transform="matrix(-0.7071 0.7071 -0.7071 -0.7071 1172.5294 619.691)" style="fill:#333437;" width="280.265" height="3.087"/>
				
					<rect x="311.405" y="544.757" transform="matrix(-0.7071 0.7071 -0.7071 -0.7071 1157.1162 613.3068)" style="fill:#333437;" width="280.265" height="3.087"/>
				
					<rect x="305.021" y="538.372" transform="matrix(-0.7071 0.7071 -0.7071 -0.7071 1141.703 606.9225)" style="fill:#333437;" width="280.265" height="3.087"/>
				
					<rect x="298.637" y="531.988" transform="matrix(-0.7071 0.7071 -0.7071 -0.7071 1126.2897 600.538)" style="fill:#333437;" width="280.265" height="3.087"/>
				
					<rect x="292.252" y="525.603" transform="matrix(-0.7071 0.7071 -0.7071 -0.7071 1110.8765 594.1534)" style="fill:#333437;" width="280.265" height="3.087"/>
			</g>
			
				<ellipse transform="matrix(0.1215 -0.9926 0.9926 0.1215 39.1331 933.5988)" style="fill:#4E61FE;" cx="546.974" cy="444.692" rx="24.306" ry="24.306"/>
			
				<ellipse transform="matrix(0.1458 -0.9893 0.9893 0.1458 333.0028 966.2833)" style="fill:#333437;" cx="726.068" cy="290.302" rx="8.77" ry="8.77"/>
			<path style="fill:#333437;" d="M502.314,41.768c0,1.789-1.45,3.239-3.239,3.239s-3.239-1.45-3.239-3.239s1.45-3.239,3.239-3.239
				S502.314,39.979,502.314,41.768z"/>
			<path style="fill:#333437;" d="M490.036,8.87c0,1.789-1.45,3.239-3.239,3.239c-1.789,0-3.239-1.45-3.239-3.239
				c0-1.789,1.45-3.239,3.239-3.239C488.586,5.632,490.036,7.082,490.036,8.87z"/>
			<path style="fill:#333437;" d="M531.268,46.04c0,1.789-1.45,3.239-3.239,3.239c-1.789,0-3.239-1.45-3.239-3.239
				s1.45-3.239,3.239-3.239C529.818,42.802,531.268,44.252,531.268,46.04z"/>
			<path style="fill:#333437;" d="M456.151,1.493c0,1.789-1.45,3.239-3.239,3.239s-3.239-1.45-3.239-3.239s1.45-3.239,3.239-3.239
				S456.151-0.295,456.151,1.493z"/>
			<path style="fill:#333437;" d="M199.836,346.662c0,4.844-3.927,8.77-8.77,8.77c-4.844,0-8.77-3.927-8.77-8.77
				c0-4.844,3.927-8.77,8.77-8.77C195.909,337.891,199.836,341.818,199.836,346.662z"/>
			<g>
				<path style="fill:#333437;" d="M16.421,198.543c0,1.456-1.18,2.637-2.637,2.637c-1.456,0-2.637-1.18-2.637-2.637
					s1.18-2.637,2.637-2.637C15.241,195.906,16.421,197.087,16.421,198.543z"/>
				<path style="fill:#333437;" d="M16.421,208.085c0,1.456-1.18,2.637-2.637,2.637c-1.456,0-2.637-1.18-2.637-2.637
					c0-1.456,1.18-2.637,2.637-2.637C15.241,205.449,16.421,206.629,16.421,208.085z"/>
				<path style="fill:#333437;" d="M16.421,217.627c0,1.456-1.18,2.636-2.637,2.636c-1.456,0-2.637-1.18-2.637-2.636
					s1.18-2.637,2.637-2.637C15.241,214.991,16.421,216.171,16.421,217.627z"/>
				<path style="fill:#333437;" d="M16.421,227.17c0,1.456-1.18,2.637-2.637,2.637c-1.456,0-2.637-1.18-2.637-2.637
					c0-1.456,1.18-2.637,2.637-2.637C15.241,224.533,16.421,225.713,16.421,227.17z"/>
				<path style="fill:#333437;" d="M16.421,236.712c0,1.456-1.18,2.636-2.637,2.636c-1.456,0-2.637-1.18-2.637-2.636
					c0-1.456,1.18-2.637,2.637-2.637C15.241,234.075,16.421,235.256,16.421,236.712z"/>
			</g>
			<g>
				<path style="fill:#333437;" d="M470.711,57.721c1.03,1.03,1.03,2.699,0,3.729c-1.03,1.03-2.699,1.03-3.729,0
					c-1.03-1.03-1.03-2.699,0-3.729C468.012,56.691,469.682,56.691,470.711,57.721z"/>
				<path style="fill:#333437;" d="M477.459,64.468c1.03,1.03,1.03,2.699,0,3.729s-2.699,1.03-3.729,0
					c-1.03-1.03-1.03-2.699,0-3.729C474.76,63.438,476.429,63.438,477.459,64.468z"/>
				<path style="fill:#333437;" d="M484.206,71.215c1.03,1.03,1.03,2.699,0,3.729c-1.03,1.03-2.699,1.03-3.729,0
					s-1.03-2.699,0-3.729C481.507,70.186,483.177,70.186,484.206,71.215z"/>
				<path style="fill:#333437;" d="M490.954,77.963c1.03,1.03,1.03,2.699,0,3.729c-1.03,1.03-2.699,1.03-3.729,0
					c-1.03-1.03-1.03-2.699,0-3.729C488.255,76.933,489.924,76.933,490.954,77.963z"/>
				<path style="fill:#333437;" d="M497.701,84.71c1.03,1.03,1.03,2.699,0,3.729c-1.03,1.03-2.699,1.03-3.729,0
					c-1.03-1.03-1.03-2.699,0-3.729C495.002,83.681,496.671,83.681,497.701,84.71z"/>
			</g>
			<g>
				<path style="fill:#333437;" d="M573.985,354.761c1.03-1.03,2.699-1.03,3.729,0c1.03,1.03,1.03,2.699,0,3.729
					c-1.03,1.03-2.699,1.03-3.729,0C572.955,357.46,572.955,355.79,573.985,354.761z"/>
				<path style="fill:#333437;" d="M580.732,348.013c1.03-1.03,2.699-1.03,3.729,0c1.03,1.03,1.03,2.699,0,3.729
					c-1.03,1.03-2.699,1.03-3.729,0C579.703,350.712,579.703,349.043,580.732,348.013z"/>
				<path style="fill:#333437;" d="M587.48,341.266c1.03-1.03,2.699-1.03,3.729,0c1.03,1.03,1.03,2.699,0,3.729
					c-1.03,1.03-2.699,1.03-3.729,0C586.45,343.965,586.45,342.296,587.48,341.266z"/>
				<path style="fill:#333437;" d="M594.227,334.518c1.03-1.03,2.699-1.03,3.729,0c1.03,1.03,1.03,2.699,0,3.729
					c-1.03,1.03-2.699,1.03-3.729,0C593.198,337.217,593.197,335.548,594.227,334.518z"/>
				<path style="fill:#333437;" d="M600.974,327.771c1.03-1.03,2.699-1.03,3.729,0c1.03,1.03,1.03,2.699,0,3.729
					c-1.03,1.03-2.699,1.03-3.729,0C599.945,330.47,599.945,328.801,600.974,327.771z"/>
			</g>
			<g>
				<path style="fill:#333437;" d="M318.267,466.131c-1.03-1.03-2.699-1.03-3.729,0c-1.03,1.03-1.03,2.699,0,3.729
					c1.03,1.03,2.699,1.03,3.729,0C319.297,468.83,319.297,467.161,318.267,466.131z"/>
				<path style="fill:#333437;" d="M311.52,459.384c-1.03-1.03-2.699-1.03-3.729,0c-1.03,1.03-1.03,2.699,0,3.729
					c1.03,1.03,2.699,1.03,3.729,0C312.549,462.083,312.549,460.414,311.52,459.384z"/>
				<path style="fill:#333437;" d="M304.772,452.637c-1.03-1.03-2.699-1.03-3.729,0c-1.03,1.03-1.03,2.699,0,3.729
					c1.03,1.03,2.699,1.03,3.729,0C305.802,455.336,305.802,453.666,304.772,452.637z"/>
				<path style="fill:#333437;" d="M298.025,445.889c-1.03-1.03-2.699-1.03-3.729,0c-1.03,1.03-1.03,2.699,0,3.729
					c1.03,1.03,2.699,1.03,3.729,0C299.054,448.588,299.054,446.919,298.025,445.889z"/>
				<path style="fill:#333437;" d="M291.277,439.142c-1.03-1.03-2.699-1.03-3.729,0c-1.03,1.03-1.03,2.699,0,3.729
					c1.03,1.03,2.699,1.03,3.729,0C292.307,441.841,292.307,440.172,291.277,439.142z"/>
			</g>
			<g>
				
					<rect x="222.72" y="3.428" transform="matrix(-0.7071 0.7071 -0.7071 -0.7071 622.9432 -248.0887)" style="fill:#9494FF;" width="280.265" height="3.087"/>
				
					<rect x="216.335" y="-2.956" transform="matrix(-0.7071 0.7071 -0.7071 -0.7071 607.5299 -254.473)" style="fill:#9494FF;" width="280.265" height="3.087"/>
				
					<rect x="209.951" y="-9.341" transform="matrix(-0.7071 0.7071 -0.7071 -0.7071 592.1166 -260.8574)" style="fill:#9494FF;" width="280.265" height="3.087"/>
				
					<rect x="203.567" y="-15.725" transform="matrix(-0.7071 0.7071 -0.7071 -0.7071 576.7033 -267.2418)" style="fill:#9494FF;" width="280.265" height="3.087"/>
				
					<rect x="197.182" y="-22.11" transform="matrix(-0.7071 0.7071 -0.7071 -0.7071 561.29 -273.6262)" style="fill:#9494FF;" width="280.265" height="3.087"/>
				
					<rect x="190.798" y="-28.494" transform="matrix(-0.7071 0.7071 -0.7071 -0.7071 545.8768 -280.0105)" style="fill:#9494FF;" width="280.265" height="3.087"/>
			</g>
			<circle style="fill:#333437;" cx="241.208" cy="95.116" r="25.855"/>
			<g>
				
					<path style="fill:#9494FF;stroke:#9494FF;stroke-width:2;stroke-linecap:round;stroke-linejoin:round;stroke-miterlimit:10;" d="
					M162.03,391.191c1.38,0.976,2.167,1.533,2.167,1.533v-75.922l-51.471-40.444v79.96
					C112.726,356.317,152.253,384.275,162.03,391.191z"/>
				<g>
					
						<line style="fill:none;stroke:#9494FF;stroke-width:2;stroke-linecap:round;stroke-linejoin:round;stroke-miterlimit:10;" x1="112.726" y1="356.317" x2="-60.423" y2="529.466"/>
					
						<line style="fill:none;stroke:#9494FF;stroke-width:2;stroke-linecap:round;stroke-linejoin:round;stroke-miterlimit:10;" x1="164.197" y1="392.723" x2="-10.343" y2="567.263"/>
					
						<line style="fill:none;stroke:#9494FF;stroke-width:2;stroke-linecap:round;stroke-linejoin:round;stroke-miterlimit:10;" x1="112.726" y1="276.357" x2="-91.57" y2="480.654"/>
				</g>
				<path style="fill:none;stroke:#333437;stroke-linecap:round;stroke-linejoin:round;stroke-miterlimit:10;" d="M152.05,401.439
					c1.38,0.976,2.167,1.533,2.167,1.533v-75.922l-51.471-40.444v79.96C102.746,366.565,142.273,394.523,152.05,401.439z"/>
			</g>
			<g>
				
					<path style="fill:#4E61FE;stroke:#4E61FE;stroke-width:2;stroke-linecap:round;stroke-linejoin:round;stroke-miterlimit:10;" d="
					M463.573,470.286c0.467,0.331,0.734,0.519,0.734,0.519v-25.706l-17.427-13.694v27.073
					C446.88,458.479,460.263,467.945,463.573,470.286z"/>
				<g>
					
						<line style="fill:none;stroke:#4E61FE;stroke-width:2;stroke-linecap:round;stroke-linejoin:round;stroke-miterlimit:10;" x1="446.88" y1="458.479" x2="388.255" y2="517.104"/>
					
						<line style="fill:none;stroke:#4E61FE;stroke-width:2;stroke-linecap:round;stroke-linejoin:round;stroke-miterlimit:10;" x1="464.307" y1="470.805" x2="405.211" y2="529.901"/>
					
						<line style="fill:none;stroke:#4E61FE;stroke-width:2;stroke-linecap:round;stroke-linejoin:round;stroke-miterlimit:10;" x1="446.88" y1="431.406" x2="377.709" y2="500.577"/>
				</g>
			</g>
			<path style="fill:#4E61FE;" d="M703.452,124.959c-18.982-18.982-46.009-25.001-70.104-18.08
				c9.632,5.242,16.169,15.452,16.169,27.189c0,17.084-13.849,30.934-30.934,30.934c-13.678,0-25.275-8.882-29.358-21.189
				c-12.962,26.409-8.482,59.214,13.481,81.177l0.358,0.358L703.452,124.959L703.452,124.959z"/>
			
				<rect x="599.819" y="116.256" transform="matrix(0.993 0.1183 -0.1183 0.993 20.1927 -72.1227)" style="fill:#333437;" width="35.53" height="35.53"/>
			
				<rect x="206.125" y="-26.032" transform="matrix(0.7071 0.7071 -0.7071 0.7071 71.8996 -161.378)" style="fill:#9494FF;" width="49.251" height="64.267"/>
			
				<rect x="221.761" y="-22.893" transform="matrix(0.7071 0.7071 -0.7071 0.7071 78.699 -171.5152)" style="fill:none;stroke:#333437;stroke-linecap:round;stroke-linejoin:round;stroke-miterlimit:10;" width="49.251" height="64.267"/>
			
				<rect x="216.583" y="-22.893" transform="matrix(0.7071 0.7071 -0.7071 0.7071 77.1823 -167.8536)" style="fill:none;stroke:#333437;stroke-linecap:round;stroke-linejoin:round;stroke-miterlimit:10;" width="49.251" height="64.267"/>
			<path style="fill:#4E61FE;" d="M72.052,684.872L72.052,684.872c-9.617-9.617-9.617-25.209,0-34.826l189.394-189.394
				c9.617-9.617,25.209-9.617,34.826,0h0c9.617,9.617,9.617,25.209,0,34.826L106.877,684.872
				C97.26,694.489,81.669,694.489,72.052,684.872z"/>
			<path style="fill:none;stroke:#333437;stroke-miterlimit:10;" d="M123.299,633.281L123.299,633.281c-7.2-7.2-7.2-18.873,0-26.073
				l141.794-141.794c7.2-7.2,18.873-7.2,26.073,0h0c7.2,7.2,7.2,18.873,0,26.073L149.372,633.281
				C142.172,640.481,130.499,640.481,123.299,633.281z"/>
			<path style="fill:#333437;" d="M257.434,400.732L257.434,400.732c-21.569-21.569-56.539-21.569-78.108,0L-0.473,580.531
				c-14.132,14.132-19.003,34.017-14.616,52.116l214.313-214.313c11.25-11.25,29.491-11.25,40.741,0l0,0
				c11.25,11.25,11.25,29.491,0,40.741L25.737,673.303c18.041,4.295,37.822-0.588,51.897-14.664L257.434,478.84
				C279.003,457.271,279.003,422.301,257.434,400.732z"/>
			
				<polyline style="fill:none;stroke:#9494FF;stroke-width:2;stroke-linecap:round;stroke-linejoin:round;stroke-miterlimit:10;" points="
				91.857,297.227 91.857,378.505 142.911,414.01 			"/>
			
				<polyline style="fill:none;stroke:#9494FF;stroke-width:2;stroke-linecap:round;stroke-linejoin:round;stroke-miterlimit:10;" points="
				72.339,316.744 72.339,397.679 123.393,433.184 			"/>
			
				<polyline style="fill:none;stroke:#9494FF;stroke-width:2;stroke-linecap:round;stroke-linejoin:round;stroke-miterlimit:10;" points="
				52.821,336.262 52.821,416.853 103.875,452.357 			"/>
			
				<polyline style="fill:none;stroke:#9494FF;stroke-width:2;stroke-linecap:round;stroke-linejoin:round;stroke-miterlimit:10;" points="
				33.303,355.78 33.303,436.027 84.357,471.531 			"/>
			
				<polyline style="fill:none;stroke:#9494FF;stroke-width:2;stroke-linecap:round;stroke-linejoin:round;stroke-miterlimit:10;" points="
				13.785,375.967 13.785,455.201 64.839,490.705 			"/>
			
				<polyline style="fill:none;stroke:#9494FF;stroke-width:2;stroke-linecap:round;stroke-linejoin:round;stroke-miterlimit:10;" points="
				-5.733,394.31 -5.733,474.375 45.321,509.879 			"/>
			<g>
				
					<rect x="499.946" y="24.711" transform="matrix(0.7071 -0.7071 0.7071 0.7071 65.1821 388.1721)" style="fill:#4E61FE;" width="2.458" height="181.379"/>
				
					<rect x="495.367" y="29.291" transform="matrix(0.7071 -0.7071 0.7071 0.7071 60.6183 386.3003)" style="fill:#4E61FE;" width="2.458" height="181.379"/>
				
					<rect x="490.788" y="33.87" transform="matrix(0.7071 -0.7071 0.7071 0.7071 56.0238 384.3784)" style="fill:#4E61FE;" width="2.458" height="181.379"/>
				
					<rect x="486.208" y="38.449" transform="matrix(0.7071 -0.7071 0.7071 0.7071 51.4592 382.5067)" style="fill:#4E61FE;" width="2.458" height="181.379"/>
				
					<rect x="427.702" y="48.137" transform="matrix(-0.7071 -0.7071 0.7071 -0.7071 688.9882 407.6947)" style="fill:#4E61FE;" width="2.458" height="26.031"/>
				
					<rect x="481.629" y="43.029" transform="matrix(0.7071 -0.7071 0.7071 0.7071 46.8655 380.5847)" style="fill:#4E61FE;" width="2.458" height="181.379"/>
			</g>
			<g>
				<path style="fill:none;stroke:#4E61FE;stroke-miterlimit:10;" d="M213.845,129.088c4.194-4.194,10.993-4.194,15.186,0
					c4.194,4.194,4.194,10.993,0,15.186"/>
				<path style="fill:none;stroke:#4E61FE;stroke-miterlimit:10;" d="M206.252,136.682c4.194-4.194,10.993-4.194,15.186,0
					c4.194,4.194,4.194,10.993,0,15.186"/>
				<path style="fill:none;stroke:#4E61FE;stroke-miterlimit:10;" d="M198.659,144.275c4.194-4.194,10.993-4.194,15.186,0
					c4.194,4.194,4.194,10.993,0,15.186"/>
				<path style="fill:none;stroke:#4E61FE;stroke-miterlimit:10;" d="M191.066,151.868c4.194-4.194,10.993-4.194,15.186,0
					c4.194,4.194,4.194,10.993,0,15.186"/>
				<path style="fill:none;stroke:#4E61FE;stroke-miterlimit:10;" d="M183.473,159.461c4.194-4.194,10.993-4.194,15.186,0
					c4.194,4.194,4.194,10.993,0,15.186"/>
				<path style="fill:none;stroke:#4E61FE;stroke-miterlimit:10;" d="M175.879,167.054c4.194-4.194,10.993-4.194,15.186,0
					c4.194,4.194,4.194,10.993,0,15.186"/>
				<path style="fill:none;stroke:#4E61FE;stroke-miterlimit:10;" d="M226.228,134.047c-0.706,0.706-1.851,0.706-2.557,0
					c-0.706-0.706-0.706-1.851,0-2.557c0.706-0.706,1.851-0.706,2.557,0C226.934,132.196,226.934,133.341,226.228,134.047z"/>
				<path style="fill:none;stroke:#4E61FE;stroke-miterlimit:10;" d="M218.719,141.555c-0.706,0.706-1.851,0.706-2.557,0
					c-0.706-0.706-0.706-1.851,0-2.557c0.706-0.706,1.851-0.706,2.557,0C219.425,139.704,219.425,140.849,218.719,141.555z"/>
				<path style="fill:none;stroke:#4E61FE;stroke-miterlimit:10;" d="M211.211,149.064c-0.706,0.706-1.851,0.706-2.557,0
					c-0.706-0.706-0.706-1.851,0-2.557c0.706-0.706,1.851-0.706,2.557,0C211.917,147.213,211.917,148.358,211.211,149.064z"/>
				<path style="fill:none;stroke:#4E61FE;stroke-miterlimit:10;" d="M203.703,156.572c-0.706,0.706-1.851,0.706-2.557,0
					c-0.706-0.706-0.706-1.851,0-2.557c0.706-0.706,1.851-0.706,2.557,0C204.409,154.721,204.409,155.866,203.703,156.572z"/>
				<path style="fill:none;stroke:#4E61FE;stroke-miterlimit:10;" d="M196.194,164.08c-0.706,0.706-1.851,0.706-2.557,0
					c-0.706-0.706-0.706-1.851,0-2.557c0.706-0.706,1.851-0.706,2.557,0C196.901,162.229,196.901,163.374,196.194,164.08z"/>
				<path style="fill:none;stroke:#4E61FE;stroke-miterlimit:10;" d="M188.686,171.589c-0.706,0.706-1.851,0.706-2.557,0
					c-0.706-0.706-0.706-1.851,0-2.557c0.706-0.706,1.851-0.706,2.557,0C189.392,169.738,189.392,170.883,188.686,171.589z"/>
			</g>
			<g>
				<path style="fill:none;stroke:#4E61FE;stroke-miterlimit:10;" d="M595.043,362.071c4.194-4.194,10.993-4.194,15.186,0
					c4.194,4.194,4.194,10.993,0,15.186"/>
				<path style="fill:none;stroke:#4E61FE;stroke-miterlimit:10;" d="M587.45,369.664c4.194-4.194,10.993-4.194,15.186,0
					c4.194,4.194,4.194,10.993,0,15.186"/>
				<path style="fill:none;stroke:#4E61FE;stroke-miterlimit:10;" d="M579.857,377.257c4.194-4.194,10.993-4.194,15.186,0
					c4.194,4.194,4.194,10.993,0,15.186"/>
				<path style="fill:none;stroke:#4E61FE;stroke-miterlimit:10;" d="M572.264,384.851c4.194-4.194,10.993-4.194,15.186,0
					c4.194,4.194,4.194,10.993,0,15.186"/>
				<path style="fill:none;stroke:#4E61FE;stroke-miterlimit:10;" d="M564.67,392.444c4.194-4.194,10.993-4.194,15.186,0
					c4.194,4.194,4.194,10.993,0,15.186"/>
				<path style="fill:none;stroke:#4E61FE;stroke-miterlimit:10;" d="M557.077,400.037c4.194-4.194,10.993-4.194,15.186,0
					c4.194,4.194,4.194,10.993,0,15.186"/>
				<path style="fill:none;stroke:#4E61FE;stroke-miterlimit:10;" d="M607.425,367.03c-0.706,0.706-1.851,0.706-2.557,0
					c-0.706-0.706-0.706-1.851,0-2.557c0.706-0.706,1.851-0.706,2.557,0C608.132,365.179,608.132,366.324,607.425,367.03z"/>
				<path style="fill:none;stroke:#4E61FE;stroke-miterlimit:10;" d="M599.917,374.538c-0.706,0.706-1.851,0.706-2.557,0
					c-0.706-0.706-0.706-1.851,0-2.557c0.706-0.706,1.851-0.706,2.557,0C600.623,372.687,600.623,373.832,599.917,374.538z"/>
				<path style="fill:none;stroke:#4E61FE;stroke-miterlimit:10;" d="M592.409,382.047c-0.706,0.706-1.851,0.706-2.557,0
					c-0.706-0.706-0.706-1.851,0-2.557c0.706-0.706,1.851-0.706,2.557,0C593.115,380.195,593.115,381.34,592.409,382.047z"/>
				<circle style="fill:none;stroke:#4E61FE;stroke-miterlimit:10;" cx="583.622" cy="388.276" r="1.808"/>
				<circle style="fill:none;stroke:#4E61FE;stroke-miterlimit:10;" cx="576.114" cy="395.784" r="1.808"/>
				<path style="fill:none;stroke:#4E61FE;stroke-miterlimit:10;" d="M569.884,404.571c-0.706,0.706-1.851,0.706-2.557,0
					c-0.706-0.706-0.706-1.851,0-2.557c0.706-0.706,1.851-0.706,2.557,0C570.59,402.72,570.59,403.865,569.884,404.571z"/>
			</g>
			<g>
				<polygon style="fill:none;stroke:#4E61FE;stroke-miterlimit:10;" points="504.527,422.745 468.142,433.437 477.075,396.581 				
					"/>
				<polygon style="fill:none;stroke:#4E61FE;stroke-miterlimit:10;" points="517.5,409.772 481.115,420.465 490.047,383.608 				
					"/>
				<polygon style="fill:none;stroke:#4E61FE;stroke-miterlimit:10;" points="530.472,396.8 494.087,407.492 503.02,370.636 				"/>
				<polygon style="fill:none;stroke:#4E61FE;stroke-miterlimit:10;" points="543.444,383.828 507.059,394.52 515.992,357.664 				
					"/>
			</g>
			<g>
				<polygon style="fill:none;stroke:#4E61FE;stroke-miterlimit:10;" points="380.843,33.823 372.415,5.144 401.465,12.185 				"/>
				<polygon style="fill:none;stroke:#4E61FE;stroke-miterlimit:10;" points="391.068,44.047 382.64,15.369 411.69,22.41 				"/>
				<polygon style="fill:none;stroke:#4E61FE;stroke-miterlimit:10;" points="401.292,54.272 392.865,25.594 421.915,32.634 				"/>
				<polygon style="fill:none;stroke:#4E61FE;stroke-miterlimit:10;" points="411.517,64.497 403.089,35.818 432.14,42.859 				"/>
			</g>
			
				<ellipse transform="matrix(0.9225 -0.386 0.386 0.9225 -29.3609 228.8265)" style="fill:#4E61FE;" cx="555.087" cy="187.52" rx="14.32" ry="14.32"/>
			<rect x="555.087" y="173.855" style="fill:none;stroke:#333437;stroke-miterlimit:10;" width="52.635" height="4.023"/>
			<rect x="555.087" y="185.509" style="fill:none;stroke:#333437;stroke-miterlimit:10;" width="52.635" height="4.023"/>
			<rect x="555.087" y="197.163" style="fill:none;stroke:#333437;stroke-miterlimit:10;" width="52.635" height="4.023"/>
			<path style="fill:none;stroke:#333437;stroke-linecap:round;stroke-linejoin:round;stroke-miterlimit:10;" d="M-14.33,286.605
				l43.815-45.894c4.961-5.197,8.51-11.64,9.899-18.688c1.699-8.618,0.713-19.781-10.024-29.963"/>
			<path style="fill:none;stroke:#333437;stroke-linecap:round;stroke-linejoin:round;stroke-miterlimit:10;" d="M-10.303,291.331
				l45.105-46.105c5.4-5.519,8.466-12.251,10.533-19.691c3.04-10.944-0.248-28.513-12.719-38.401"/>
			<path style="fill:none;stroke:#333437;stroke-linecap:round;stroke-linejoin:round;stroke-miterlimit:10;" d="M-5.733,297.227
				c6.15-6.76,30.477-31.345,43.202-44.166c9.537-9.609,15.224-22.516,15.27-36.054c0.038-11.244-3.654-24.186-16.425-35.518"/>
			<path style="fill:none;stroke:#9494FF;stroke-miterlimit:10;" d="M649.755,358.926c0,0-32.901-32.929-7.027-65.932
				c26.628-33.966,144.915-144.421,144.915-144.421"/>
			<path style="fill:none;stroke:#9494FF;stroke-miterlimit:10;" d="M654.984,355.303c0,0-32.247-29.306-3.468-62.626
				c22.282-25.799,129.774-127.951,129.774-127.951"/>
			<path style="fill:none;stroke:#9494FF;stroke-miterlimit:10;" d="M658.688,349.747c0,0-28.543-23.75,0.821-54.302
				c30.114-31.332,132.459-132.459,132.459-132.459"/>
			
				<line style="fill:none;stroke:#333437;stroke-linecap:round;stroke-linejoin:round;stroke-miterlimit:10;" x1="-17.326" y1="117.804" x2="34.677" y2="117.804"/>
			
				<line style="fill:none;stroke:#333437;stroke-linecap:round;stroke-linejoin:round;stroke-miterlimit:10;" x1="-7.91" y1="108.388" x2="44.092" y2="108.388"/>
			
				<line style="fill:none;stroke:#333437;stroke-linecap:round;stroke-linejoin:round;stroke-miterlimit:10;" x1="1.505" y1="98.973" x2="53.507" y2="98.973"/>
			
				<line style="fill:none;stroke:#333437;stroke-linecap:round;stroke-linejoin:round;stroke-miterlimit:10;" x1="10.92" y1="89.558" x2="62.923" y2="89.558"/>
			
				<line style="fill:none;stroke:#333437;stroke-linecap:round;stroke-linejoin:round;stroke-miterlimit:10;" x1="20.335" y1="80.143" x2="72.338" y2="80.143"/>
			
				<line style="fill:none;stroke:#333437;stroke-linecap:round;stroke-linejoin:round;stroke-miterlimit:10;" x1="29.751" y1="70.728" x2="81.753" y2="70.728"/>
			
				<line style="fill:none;stroke:#333437;stroke-linecap:round;stroke-linejoin:round;stroke-miterlimit:10;" x1="39.166" y1="61.312" x2="91.168" y2="61.312"/>
			
				<line style="fill:none;stroke:#333437;stroke-linecap:round;stroke-linejoin:round;stroke-miterlimit:10;" x1="48.581" y1="51.897" x2="100.584" y2="51.897"/>
			
				<line style="fill:none;stroke:#333437;stroke-linecap:round;stroke-linejoin:round;stroke-miterlimit:10;" x1="57.996" y1="42.482" x2="109.999" y2="42.482"/>
			
				<line style="fill:none;stroke:#333437;stroke-linecap:round;stroke-linejoin:round;stroke-miterlimit:10;" x1="67.411" y1="33.067" x2="119.414" y2="33.067"/>
			
				<line style="fill:none;stroke:#333437;stroke-linecap:round;stroke-linejoin:round;stroke-miterlimit:10;" x1="76.827" y1="23.652" x2="128.829" y2="23.652"/>
			
				<line style="fill:none;stroke:#333437;stroke-linecap:round;stroke-linejoin:round;stroke-miterlimit:10;" x1="86.242" y1="14.236" x2="138.245" y2="14.236"/>
			
				<line style="fill:none;stroke:#333437;stroke-linecap:round;stroke-linejoin:round;stroke-miterlimit:10;" x1="95.657" y1="4.821" x2="147.66" y2="4.821"/>
			
				<line style="fill:none;stroke:#333437;stroke-linecap:round;stroke-linejoin:round;stroke-miterlimit:10;" x1="105.072" y1="-4.594" x2="157.075" y2="-4.594"/>
			<polyline style="fill:none;stroke:#333437;stroke-linecap:round;stroke-linejoin:round;stroke-miterlimit:10;" points="
				516.595,70.728 516.595,23.553 463.911,23.553 465.199,-27.843 540.182,47.14 516.595,70.728 428.898,-7.797 			"/>
			<polyline style="fill:none;stroke:#333437;stroke-linecap:round;stroke-linejoin:round;stroke-miterlimit:10;" points="
				472.107,30.892 509.793,30.892 509.793,64.637 			"/>
			
				<line style="fill:none;stroke:#333437;stroke-linecap:round;stroke-linejoin:round;stroke-miterlimit:10;" x1="472.107" y1="23.553" x2="472.107" y2="-20.566"/>
			
				<polygon style="fill:#9494FF;stroke:#9494FF;stroke-width:2;stroke-linecap:round;stroke-linejoin:round;stroke-miterlimit:10;" points="
				299.484,504.212 317.106,486.59 340.047,509.531 			"/>
		</g>
	</g>
</g>
</svg>
